<svg width="52" height="52" viewBox="0 0 52 52" fill="none" xmlns="http://www.w3.org/2000/svg">
<path d="M32.164 7.30575C33.0624 4.05968 38.2871 -4.09837 47.6133 2.5128C56.4616 10.6553 48.7853 18.0265 45.5704 19.0941C42.3557 20.1617 38.8864 19.658 36.3248 20.8276C33.7631 21.9972 33.8421 22.1173 32.8072 22.8157C28.8659 25.4753 27.4816 28.8052 26.5086 32.3147C25.3676 36.43 26.193 38.1578 25.0324 42.3515C23.8719 46.5452 17.2128 56.9156 5.30223 48.4724C-5.99814 38.0735 3.62821 28.8696 7.91117 27.2964C12.1941 25.7233 15.3852 26.8797 19.7189 25.0825C23.185 23.645 28.0332 19.8773 29.1113 18.696C30.1895 17.5147 30.567 16.1603 31.0083 15.1646C31.4497 14.169 31.2657 10.5518 32.164 7.30575Z" fill="white"/>
<path d="M50.3522 35.9721C50.3522 40.5298 46.6575 44.2245 42.0998 44.2245C37.5421 44.2245 33.8474 40.5298 33.8474 35.9721C33.8474 31.4144 37.5421 27.7197 42.0998 27.7197C46.6575 27.7197 50.3522 31.4144 50.3522 35.9721Z" fill="white"/>
<path d="M23.0216 10.77C23.0216 15.3276 19.3269 19.0223 14.7692 19.0223C10.2116 19.0223 6.51685 15.3276 6.51685 10.77C6.51685 6.2123 10.2116 2.51758 14.7692 2.51758C19.3269 2.51758 23.0216 6.2123 23.0216 10.77Z" fill="white"/>
</svg>
