<svg width="238" height="52" viewBox="0 0 238 52" fill="none" xmlns="http://www.w3.org/2000/svg">
<path d="M32.164 7.30575C33.0624 4.05968 38.2871 -4.09837 47.6133 2.5128C56.4616 10.6553 48.7853 18.0265 45.5704 19.0941C42.3557 20.1617 38.8864 19.658 36.3248 20.8276C33.7631 21.9972 33.8421 22.1173 32.8072 22.8157C28.8659 25.4753 27.4816 28.8052 26.5086 32.3147C25.3676 36.43 26.193 38.1578 25.0324 42.3515C23.8719 46.5452 17.2128 56.9156 5.30223 48.4724C-5.99814 38.0735 3.62821 28.8696 7.91117 27.2964C12.1941 25.7233 15.3852 26.8797 19.7189 25.0825C23.185 23.645 28.0332 19.8773 29.1113 18.696C30.1895 17.5147 30.567 16.1603 31.0083 15.1646C31.4497 14.169 31.2657 10.5518 32.164 7.30575Z" fill="black"/>
<path d="M50.3522 35.9721C50.3522 40.5298 46.6575 44.2245 42.0998 44.2245C37.5421 44.2245 33.8474 40.5298 33.8474 35.9721C33.8474 31.4144 37.5421 27.7197 42.0998 27.7197C46.6575 27.7197 50.3522 31.4144 50.3522 35.9721Z" fill="black"/>
<path d="M23.0216 10.77C23.0216 15.3276 19.3269 19.0223 14.7692 19.0223C10.2116 19.0223 6.51685 15.3276 6.51685 10.77C6.51685 6.2123 10.2116 2.51758 14.7692 2.51758C19.3269 2.51758 23.0216 6.2123 23.0216 10.77Z" fill="black"/>
<path d="M223.174 48.1773C221.317 48.1773 219.639 47.834 218.138 47.1473C216.638 46.448 215.449 45.437 214.571 44.1146C213.707 42.7921 213.274 41.1708 213.274 39.2507C213.274 37.5976 213.592 36.237 214.228 35.1688C214.864 34.1007 215.722 33.2551 216.803 32.632C217.884 32.0089 219.092 31.5384 220.427 31.2205C221.762 30.9026 223.123 30.661 224.509 30.4957C226.264 30.2922 227.688 30.1269 228.781 29.9998C229.875 29.8599 230.67 29.6374 231.166 29.3322C231.662 29.027 231.91 28.5311 231.91 27.8444V27.7109C231.91 26.0451 231.439 24.7544 230.498 23.8389C229.57 22.9233 228.184 22.4655 226.34 22.4655C224.42 22.4655 222.907 22.8915 221.8 23.7435C220.707 24.5827 219.95 25.5174 219.53 26.5474L214.171 25.3266C214.806 23.5464 215.735 22.1095 216.955 21.0159C218.189 19.9096 219.607 19.1085 221.209 18.6126C222.811 18.1039 224.496 17.8496 226.264 17.8496C227.433 17.8496 228.673 17.9895 229.983 18.2692C231.306 18.5363 232.539 19.0322 233.683 19.757C234.841 20.4818 235.788 21.5182 236.525 22.8661C237.263 24.2013 237.632 25.937 237.632 28.0733V47.5288H232.062V43.5233H231.833C231.464 44.2608 230.911 44.9856 230.174 45.6977C229.436 46.4098 228.489 47.0011 227.332 47.4716C226.175 47.9421 224.789 48.1773 223.174 48.1773ZM224.413 43.5996C225.99 43.5996 227.338 43.288 228.457 42.6649C229.589 42.0419 230.447 41.228 231.032 40.2235C231.63 39.2062 231.929 38.119 231.929 36.9618V33.1851C231.725 33.3886 231.331 33.5793 230.746 33.7574C230.174 33.9227 229.519 34.0689 228.781 34.1961C228.044 34.3105 227.325 34.4186 226.626 34.5203C225.927 34.6093 225.342 34.6856 224.871 34.7492C223.765 34.8891 222.754 35.1243 221.838 35.4549C220.936 35.7856 220.211 36.2624 219.664 36.8855C219.13 37.4959 218.863 38.3097 218.863 39.327C218.863 40.7385 219.384 41.8066 220.427 42.5314C221.47 43.2435 222.798 43.5996 224.413 43.5996Z" fill="black"/>
<path d="M188.249 30.1333V47.5288H182.546V18.2311H188.02V22.9996H188.383C189.057 21.4482 190.112 20.2021 191.549 19.2611C192.998 18.3201 194.823 17.8496 197.023 17.8496C199.02 17.8496 200.768 18.2692 202.268 19.1085C203.769 19.935 204.932 21.1685 205.759 22.8089C206.586 24.4492 206.999 26.4774 206.999 28.8935V47.5288H201.296V29.5801C201.296 27.4566 200.743 25.7971 199.636 24.6018C198.53 23.3938 197.01 22.7898 195.078 22.7898C193.755 22.7898 192.579 23.0759 191.549 23.6481C190.532 24.2203 189.724 25.0596 189.126 26.1659C188.542 27.2595 188.249 28.5819 188.249 30.1333Z" fill="black"/>
<path d="M169.17 47.531V18.2333H174.874V47.531H169.17ZM172.051 13.7128C171.059 13.7128 170.207 13.3821 169.495 12.7209C168.795 12.047 168.446 11.2458 168.446 10.3176C168.446 9.37659 168.795 8.57548 169.495 7.91424C170.207 7.24029 171.059 6.90332 172.051 6.90332C173.042 6.90332 173.888 7.24029 174.587 7.91424C175.299 8.57548 175.656 9.37659 175.656 10.3176C175.656 11.2458 175.299 12.047 174.587 12.7209C173.888 13.3821 173.042 13.7128 172.051 13.7128Z" fill="black"/>
<path d="M146.515 48.1017C144.15 48.1017 142.039 47.4977 140.182 46.2896C138.339 45.0689 136.889 43.3332 135.834 41.0824C134.791 38.819 134.27 36.1041 134.27 32.9378C134.27 29.7715 134.797 27.063 135.853 24.8123C136.921 22.5615 138.383 20.8385 140.24 19.6432C142.096 18.4479 144.201 17.8503 146.553 17.8503C148.372 17.8503 149.834 18.1554 150.94 18.7658C152.059 19.3635 152.924 20.0628 153.534 20.8639C154.157 21.6651 154.641 22.3708 154.984 22.9812H155.327V8.46582H161.03V47.5295H155.461V42.9708H154.984C154.641 43.5938 154.145 44.3059 153.496 45.1071C152.86 45.9082 151.983 46.6075 150.864 47.2052C149.745 47.8029 148.295 48.1017 146.515 48.1017ZM147.774 43.2378C149.414 43.2378 150.8 42.8055 151.932 41.9408C153.077 41.0634 153.941 39.849 154.526 38.2976C155.124 36.7463 155.423 34.9406 155.423 32.8806C155.423 30.846 155.13 29.0658 154.545 27.5399C153.96 26.0139 153.102 24.825 151.97 23.973C150.839 23.121 149.44 22.6951 147.774 22.6951C146.057 22.6951 144.627 23.1401 143.482 24.0302C142.338 24.9204 141.473 26.1347 140.888 27.6734C140.316 29.212 140.03 30.9478 140.03 32.8806C140.03 34.8389 140.322 36.6 140.907 38.1641C141.492 39.7282 142.357 40.968 143.501 41.8835C144.659 42.7864 146.083 43.2378 147.774 43.2378Z" fill="black"/>
<path d="M115.524 48.1201C112.778 48.1201 110.381 47.4907 108.334 46.2318C106.286 44.9729 104.697 43.2117 103.565 40.9483C102.433 38.6848 101.867 36.0399 101.867 33.0135C101.867 29.9743 102.433 27.3167 103.565 25.0405C104.697 22.7644 106.286 20.9968 108.334 19.7379C110.381 18.4791 112.778 17.8496 115.524 17.8496C118.271 17.8496 120.668 18.4791 122.715 19.7379C124.763 20.9968 126.352 22.7644 127.484 25.0405C128.616 27.3167 129.181 29.9743 129.181 33.0135C129.181 36.0399 128.616 38.6848 127.484 40.9483C126.352 43.2117 124.763 44.9729 122.715 46.2318C120.668 47.4907 118.271 48.1201 115.524 48.1201ZM115.544 43.3325C117.324 43.3325 118.799 42.862 119.969 41.921C121.139 40.9801 122.003 39.7275 122.563 38.1635C123.135 36.5994 123.421 34.8764 123.421 32.9944C123.421 31.1251 123.135 29.4085 122.563 27.8444C122.003 26.2676 121.139 25.0024 119.969 24.0487C118.799 23.095 117.324 22.6181 115.544 22.6181C113.751 22.6181 112.263 23.095 111.08 24.0487C109.91 25.0024 109.039 26.2676 108.467 27.8444C107.908 29.4085 107.628 31.1251 107.628 32.9944C107.628 34.8764 107.908 36.5994 108.467 38.1635C109.039 39.7275 109.91 40.9801 111.08 41.921C112.263 42.862 113.751 43.3325 115.544 43.3325Z" fill="black"/>
<path d="M95.0438 8.46582V47.5295H89.6268L69.7707 18.8802H69.4083V47.5295H63.5144V8.46582H68.9696L88.8447 37.1532H89.2071V8.46582H95.0438Z" fill="black"/>
</svg>
